<?xml version="1.0" encoding="utf-8"?>
<!-- Generator: Adobe Illustrator 15.1.0, SVG Export Plug-In . SVG Version: 6.00 Build 0)  -->
<!DOCTYPE svg PUBLIC "-//W3C//DTD SVG 1.1//EN" "http://www.w3.org/Graphics/SVG/1.1/DTD/svg11.dtd">
<svg version="1.1" id="Layer_1" xmlns="http://www.w3.org/2000/svg" xmlns:xlink="http://www.w3.org/1999/xlink" x="0px" y="0px"
	 width="250.822px" height="219.412px" viewBox="0 0 250.822 219.412" enable-background="new 0 0 250.822 219.412"
	 xml:space="preserve">
<path fill="#D0525D" d="M125.41,2.373c-59.278,0-107.333,48.055-107.333,107.333S66.132,217.039,125.41,217.039
	c59.28,0,107.335-48.055,107.335-107.333S184.69,2.373,125.41,2.373z M48.456,95.504c-3.487-3.487-3.487-9.141,0.001-12.628
	c19.521-19.521,45.458-30.272,73.031-30.272c27.574,0,53.509,10.751,73.031,30.272c3.486,3.487,3.486,9.141,0,12.628
	c-1.744,1.744-4.029,2.615-6.314,2.615s-4.57-0.871-6.316-2.615c-16.146-16.148-37.596-25.041-60.4-25.041
	c-22.803,0-44.254,8.893-60.403,25.041C57.598,98.991,51.944,98.992,48.456,95.504z M66.406,117.512
	c-3.312-3.313-3.312-8.684,0.001-11.996c14.722-14.723,34.284-22.831,55.081-22.831s40.357,8.108,55.08,22.831
	c1.836,1.835,2.648,4.301,2.451,6.699l-3.057,3.058l-12.457-12.458c-2.277-2.277-5.305-3.53-8.523-3.53
	c-3.221,0-6.248,1.254-8.525,3.53c-0.506,0.507-0.955,1.051-1.355,1.619c-22.144-9.278-48.696-4.921-66.698,13.078
	C75.091,120.825,69.719,120.825,66.406,117.512z M121.488,166.809c-7.521,0-13.618-6.098-13.618-13.618
	c0-7.521,6.096-13.617,13.618-13.617c7.521,0,13.617,6.096,13.617,13.617C135.104,160.711,129.009,166.809,121.488,166.809z
	 M98.589,138.181c-3.138,3.139-8.227,3.141-11.366,0c-3.139-3.138-3.139-8.227,0-11.364c15.857-15.858,40.061-18.403,58.6-7.641
	c0.203,0.234,0.41,0.466,0.633,0.687l11.57,11.571c0.076,0.572,0.094,1.151,0.047,1.728l-7.342,7.343
	c-0.221,0.019-0.441,0.031-0.662,0.031c-2.057,0-4.113-0.785-5.682-2.354C131.759,125.554,111.214,125.555,98.589,138.181z
	 M202.626,158.538c-1.568,1.569-3.625,2.354-5.682,2.354c-2.059,0-4.113-0.785-5.684-2.354l-15.299-15.299l-15.299,15.299
	c-1.57,1.569-3.625,2.354-5.682,2.354s-4.113-0.785-5.684-2.354c-3.137-3.139-3.139-8.228,0-11.364l15.299-15.3l-15.299-15.299
	c-3.139-3.139-3.137-8.227,0-11.366c3.139-3.137,8.227-3.139,11.365,0l15.299,15.3l15.299-15.299c3.139-3.138,8.227-3.14,11.365,0
	c3.139,3.139,3.139,8.228,0,11.365l-15.299,15.299l15.299,15.299C205.764,150.311,205.764,155.399,202.626,158.538z"/>
</svg>
