<?xml version="1.0" encoding="utf-8"?>
<!-- Generator: Adobe Illustrator 15.1.0, SVG Export Plug-In . SVG Version: 6.00 Build 0)  -->
<!DOCTYPE svg PUBLIC "-//W3C//DTD SVG 1.1//EN" "http://www.w3.org/Graphics/SVG/1.1/DTD/svg11.dtd">
<svg version="1.1" id="Layer_1" xmlns="http://www.w3.org/2000/svg" xmlns:xlink="http://www.w3.org/1999/xlink" x="0px" y="0px"
	 width="250.822px" height="219.412px" viewBox="0 0 250.822 219.412" enable-background="new 0 0 250.822 219.412"
	 xml:space="preserve">
<path fill="#D0525D" d="M125.411,3.206c-58.818,0-106.5,47.682-106.5,106.5s47.682,106.5,106.5,106.5s106.5-47.682,106.5-106.5
	S184.229,3.206,125.411,3.206z M140.454,67.977c-3.707-3.707-3.707-9.718,0-13.425c3.708-3.707,9.718-3.708,13.426,0l7.13,7.13
	l7.131-7.13c3.709-3.708,9.719-3.707,13.426,0c3.707,3.707,3.707,9.718,0,13.425l-7.13,7.131l7.13,7.13
	c3.707,3.707,3.707,9.718,0,13.425c-1.854,1.854-4.283,2.781-6.713,2.781c-2.431,0-4.859-0.926-6.713-2.781l-7.131-7.13l-7.13,7.13
	c-1.854,1.854-4.284,2.781-6.713,2.781c-2.431,0-4.859-0.926-6.713-2.781c-3.707-3.707-3.707-9.718,0-13.425l7.13-7.13
	L140.454,67.977z M69.257,67.977c-3.708-3.707-3.708-9.718,0-13.425c3.708-3.708,9.719-3.707,13.425,0l7.13,7.13l7.13-7.13
	c3.707-3.707,9.718-3.708,13.425,0c3.708,3.707,3.708,9.718,0,13.425l-7.13,7.131l7.13,7.13c3.708,3.707,3.708,9.718,0,13.425
	c-1.854,1.854-4.283,2.781-6.712,2.781s-4.859-0.926-6.712-2.781l-7.13-7.13l-7.13,7.13c-1.854,1.854-4.283,2.781-6.712,2.781
	c-2.43,0-4.859-0.926-6.712-2.781c-3.708-3.707-3.708-9.718,0-13.425l7.13-7.13L69.257,67.977z M185.949,177.012
	c-1.854,1.853-4.283,2.779-6.713,2.779c-2.431,0-4.859-0.927-6.714-2.779c-25.977-25.979-68.246-25.977-94.224,0
	c-3.707,3.707-9.717,3.707-13.425-0.002c-3.707-3.707-3.707-9.718,0-13.425c33.381-33.378,87.695-33.38,121.075,0
	C189.656,167.294,189.656,173.303,185.949,177.012z"/>
</svg>
